<?xml version="1.0" encoding="utf-8"?>
<!-- Generator: Adobe Illustrator 16.0.0, SVG Export Plug-In . SVG Version: 6.00 Build 0)  -->
<!DOCTYPE svg PUBLIC "-//W3C//DTD SVG 1.1//EN" "http://www.w3.org/Graphics/SVG/1.1/DTD/svg11.dtd">
<svg version="1.1" id="Layer_1" xmlns="http://www.w3.org/2000/svg" xmlns:xlink="http://www.w3.org/1999/xlink" x="0px" y="0px"
	 width="704.454px" height="176.783px" viewBox="0 0 704.454 176.783" enable-background="new 0 0 704.454 176.783"
	 xml:space="preserve">
<g>
	<g>
		<path fill="#F6F6F6" d="M0,0h27.242v51.357L75.65,0h34.006L61.249,48.93l53.093,74.954h-34.18L42.857,68.188l-15.615,15.79v39.905
			H0V0z"/>
		<path fill="#F6F6F6" d="M139.329,20.301h-24.637V0h24.637V20.301z M114.692,34.182h24.637v89.702h-24.637V34.182z"/>
		<path fill="#F6F6F6" d="M147.195,34.182h23.423v12.493h0.521c6.247-10.064,17.004-14.923,27.415-14.923
			c26.198,0,32.793,14.749,32.793,36.957v55.175h-24.64V73.219c0-14.746-4.336-22.034-15.788-22.034
			c-13.361,0-19.085,7.462-19.085,25.681v47.019h-24.639V34.182z"/>
		<path fill="#F6F6F6" d="M327.642,118.158c0,14.748-5.204,39.733-46.497,39.733c-17.699,0-38.348-8.328-39.562-28.802h24.466
			c2.255,9.193,9.714,12.319,18.391,12.319c13.707,0,19.953-9.373,19.78-22.213v-11.799h-0.348
			c-5.378,9.373-16.136,13.883-26.894,13.883c-26.893,0-38.345-20.473-38.345-45.111c0-23.25,13.361-44.418,38.519-44.418
			c11.799,0,20.82,3.991,26.72,14.401h0.348v-11.97h23.422V118.158z M304.22,77.905c0-14.574-5.031-27.588-20.994-27.588
			c-13.881,0-19.954,12.146-19.954,25.505c0,12.839,4.858,26.894,19.954,26.894C297.28,102.716,304.22,90.744,304.22,77.905z"/>
		<path fill="#F6F6F6" d="M399.883,112.433h-0.35c-5.726,9.719-15.787,13.881-27.238,13.881c-27.066,0-40.254-23.25-40.254-48.061
			c0-24.119,13.359-46.501,39.731-46.501c10.584,0,20.994,4.511,26.548,13.361h0.349V0h24.639v123.884h-23.424V112.433
			L399.883,112.433z M378.37,50.317c-16.137,0-21.688,13.881-21.688,28.629c0,14.054,6.419,28.8,21.688,28.8
			c16.307,0,21.166-14.226,21.166-28.974C399.536,64.198,394.333,50.317,378.37,50.317z"/>
		<path fill="#F6F6F6" d="M476.75,31.752c28.281,0,46.498,18.739,46.498,47.367c0,28.453-18.217,47.192-46.498,47.192
			c-28.111,0-46.326-18.739-46.326-47.192C430.424,50.491,448.639,31.752,476.75,31.752z M476.75,107.746
			c16.83,0,21.859-14.397,21.859-28.627c0-14.4-5.029-28.802-21.859-28.802c-16.656,0-21.688,14.401-21.688,28.802
			C455.063,93.349,460.094,107.746,476.75,107.746z"/>
		<path fill="#F6F6F6" d="M531.237,34.182h23.246v12.146h0.352c6.416-9.197,15.785-14.575,27.41-14.575
			c11.279,0,21.338,4.164,26.197,14.923c5.207-7.81,14.576-14.923,27.068-14.923c19.086,0,32.795,8.849,32.795,32.099v60.033
			h-24.643V73.047c0-11.972-1.039-21.862-15.092-21.862c-13.883,0-16.48,11.452-16.48,22.729v49.97h-24.639V73.566
			c0-10.408,0.695-22.382-14.922-22.382c-4.857,0-16.658,3.123-16.658,20.647v52.052h-24.637V34.182H531.237z"/>
		<path fill="#F6F6F6" d="M677.213,97.164h27.24v26.72h-27.24V97.164z"/>
	</g>
</g>
<g>
	<path fill="#F6F6F6" d="M489.333,149.635c-2.57-2.653-6.121-4.28-9.848-4.28c-7.195,0-13.02,6.252-13.02,13.357
		c0,7.107,5.867,13.357,13.104,13.357c3.643,0,7.193-1.711,9.764-4.277v4.452c-2.783,2.014-6.209,3.168-9.635,3.168
		c-9.119,0-16.826-7.408-16.826-16.571c0-9.248,7.578-16.826,16.826-16.826c3.598,0,6.766,1.026,9.635,3.166V149.635z"/>
	<path fill="#F6F6F6" d="M507.573,174.854h-3.598v-32.287h4.668c6.123,0,11.816,1.627,11.816,8.91c0,4.967-3.125,8.479-8.092,8.902
		l10.275,14.475h-4.408l-9.766-14.172h-0.898v14.172H507.573z M507.573,157.512h1.113c4.066,0,8.18-0.769,8.18-5.776
		c0-5.312-3.898-5.827-8.223-5.827h-1.07V157.512z"/>
	<path fill="#F6F6F6" d="M535.747,142.567h16.742v3.34h-13.146v9.592h12.762v3.342h-12.762v12.676h13.146v3.338h-16.742V142.567z"/>
	<path fill="#F6F6F6" d="M572.01,165.69l-3.895,9.164h-3.939l14.9-33.828l14.516,33.828h-3.98l-3.812-9.164H572.01z M578.991,149.42
		l-5.523,12.931h10.92L578.991,149.42z"/>
	<path fill="#F6F6F6" d="M610.805,174.854h-3.598v-28.947h-7.793v-3.34h19.268v3.34h-7.877V174.854z"/>
	<path fill="#F6F6F6" d="M634.612,174.854h-3.598v-32.287h3.598V174.854z"/>
	<path fill="#F6F6F6" d="M659.833,167.19l9.205-24.623h3.896l-13.104,34.215l-13.104-34.215h3.896L659.833,167.19z"/>
	<path fill="#F6F6F6" d="M685.006,142.567h16.744v3.34h-13.146v9.592h12.76v3.342h-12.76v12.676h13.146v3.338h-16.744V142.567z"/>
</g>
</svg>
